<svg version="1.1" id="Layer_1" xmlns="http://www.w3.org/2000/svg" xmlns:xlink="http://www.w3.org/1999/xlink" x="0px" y="0px"
	 width="100%" viewBox="0 0 224 224" enable-background="new 0 0 224 224" xml:space="preserve">
<path fill="#000000" opacity="1.000000" stroke="none" 
	d="
M62.428467,225.000000 
	C61.079540,224.624435 60.184898,224.157059 59.234024,223.889664 
	C55.667515,222.886749 51.801586,222.200684 51.824444,217.269913 
	C51.846996,212.404785 54.761383,209.394257 59.024307,208.152130 
	C62.605907,207.108521 65.827286,205.484467 69.069138,203.818542 
	C75.075783,200.731796 77.495316,193.919373 74.350624,187.823135 
	C72.108948,183.477463 72.589989,179.858902 75.706528,176.389511 
	C77.930893,173.913315 80.203804,171.476761 82.537132,169.103210 
	C87.820740,163.728531 88.708549,159.821579 85.323410,153.203445 
	C83.949478,150.517334 84.264343,148.769791 85.384529,145.964981 
	C87.323944,141.108963 87.507698,134.760071 86.574265,130.464050 
	C85.176781,124.032303 83.422859,116.314941 76.040199,112.182320 
	C72.847672,110.395233 70.841522,110.037392 68.062737,112.009064 
	C63.335545,115.363235 57.949425,116.975533 52.267662,117.788765 
	C49.985527,118.115417 47.842773,118.016663 46.481098,115.915634 
	C44.924099,113.513245 46.640209,111.665398 48.122417,110.211998 
	C51.325985,107.070740 54.721130,104.112549 58.168171,101.235542 
	C61.264862,98.650948 62.207092,96.473587 57.982975,94.021225 
	C55.785343,92.745361 53.971245,90.900856 55.264263,87.844543 
	C56.170647,85.702118 54.701782,84.234184 53.372974,83.088478 
	C46.125854,76.839958 43.450291,67.484474 37.671963,60.251808 
	C36.564796,58.865974 37.214108,57.550766 37.812206,56.076130 
	C40.811676,48.680851 40.935322,40.494686 44.213650,33.105347 
	C45.493179,30.221291 42.525085,28.367094 40.472996,26.693815 
	C38.837173,25.359970 37.436127,25.545069 35.618225,26.926014 
	C31.990253,29.681957 28.514990,28.024975 27.791977,23.512701 
	C26.892794,17.900930 31.960350,13.122310 38.221851,13.833172 
	C42.915276,14.366013 46.830070,16.707609 49.723484,20.282118 
	C52.810673,24.096020 56.398464,24.640488 60.311497,22.478504 
	C66.206978,19.221199 72.730446,19.030008 79.084877,17.926493 
	C80.474533,17.685163 81.632301,18.472187 82.856026,18.668139 
	C90.993507,19.971180 96.894821,25.785412 104.084175,28.974600 
	C106.057320,29.849886 107.637878,31.869881 109.084206,33.623840 
	C113.253014,38.679329 119.509811,41.105076 123.596809,46.830322 
	C126.356979,50.696903 130.967590,53.543938 133.771805,58.303383 
	C136.339615,62.661564 141.012085,62.266293 145.434387,59.039619 
	C154.842545,52.175106 163.938095,44.819923 174.308426,39.356609 
	C175.882751,38.527225 176.746643,37.171963 177.247833,35.500519 
	C177.630249,34.225155 178.023575,32.476418 179.390991,32.345051 
	C184.104294,31.892267 185.670013,27.914577 188.234253,25.022127 
	C192.154770,20.599823 196.812576,17.149765 202.164673,14.646954 
	C204.533127,13.539383 207.024628,12.957590 209.188934,14.851861 
	C211.260330,16.664782 209.785248,18.871166 209.375351,20.918753 
	C208.891968,23.333422 207.278885,25.021168 205.689331,26.738987 
	C204.699707,27.808455 203.157944,28.866428 204.264053,30.556570 
	C206.672775,34.237133 203.881714,35.895874 201.720215,37.991428 
	C197.326859,42.250759 191.186600,42.700985 185.936432,44.740173 
	C175.012146,48.983208 166.023544,55.986134 156.523880,62.328594 
	C153.757690,64.175446 151.120636,66.237999 148.558960,68.363838 
	C144.268341,71.924461 144.090439,78.116096 148.764206,81.094917 
	C153.825470,84.320686 154.574707,89.211906 155.212204,94.194206 
	C155.568634,96.979843 155.963913,99.346169 158.340668,101.154259 
	C160.261627,102.615593 160.953445,104.839836 159.836853,106.969818 
	C157.593185,111.249802 159.409088,114.792702 161.754059,118.026756 
	C163.525024,120.469131 164.071701,122.517593 162.732834,125.337967 
	C161.482437,127.971970 161.752853,131.093811 162.556137,133.693649 
	C164.576492,140.232483 164.393173,145.982666 161.036621,152.379547 
	C156.652054,160.735657 158.010376,164.210037 164.814224,171.087555 
	C166.915192,173.211273 168.858780,175.507980 170.714188,177.852310 
	C172.484146,180.088669 172.794647,182.739609 172.048782,185.446854 
	C168.257584,199.207886 170.552597,203.389938 184.388306,207.436111 
	C186.343735,208.007980 188.155746,208.659897 189.760284,209.928726 
	C192.648254,212.212448 193.814926,215.169388 193.190277,218.756699 
	C192.592682,222.188568 189.790207,222.937805 186.960541,223.614380 
	C185.830902,223.884476 184.733337,224.288773 183.310593,224.815994 
	C181.285645,225.000000 179.571289,225.000000 177.111664,224.787720 
	C169.659103,223.425781 162.938782,222.346512 156.248108,221.107101 
	C149.241425,219.809143 148.221237,218.145309 147.628693,211.192368 
	C147.229111,206.503510 150.004196,202.529419 149.699966,197.984116 
	C149.392456,193.389282 151.582138,190.533813 156.084473,190.045227 
	C159.895889,189.631622 161.415070,187.229797 161.606781,184.114059 
	C161.886673,179.565659 158.382095,176.979858 155.158966,174.731171 
	C152.839310,173.112778 150.436844,174.207169 148.444534,176.169296 
	C145.351608,179.215393 142.098709,182.277679 138.122971,183.950378 
	C131.419189,186.770874 125.005173,190.229797 116.879311,188.207886 
	C113.182243,187.287964 109.319000,185.157135 105.395576,185.863297 
	C101.740509,186.521103 100.453712,185.485825 99.412743,182.022568 
	C98.311470,178.358658 95.676880,175.245865 91.643608,174.452209 
	C89.323730,173.995728 83.283531,180.443771 83.509666,183.052414 
	C83.809494,186.511353 85.068169,189.424622 89.304054,189.980286 
	C91.774223,190.304306 94.858284,191.276337 94.958855,194.087433 
	C95.179718,200.260468 97.770790,205.991623 97.496902,212.298630 
	C97.286476,217.144089 95.669456,219.381058 90.969505,220.633713 
	C83.394539,222.652649 75.507828,222.798706 68.000000,225.000000 
	C66.285645,225.000000 64.571281,225.000000 62.428467,225.000000 
M186.452240,31.561882 
	C184.992950,34.857780 187.462524,35.346680 189.603897,35.569649 
	C193.320557,35.956631 198.403641,30.414301 197.726044,26.594700 
	C197.509583,25.374489 198.061768,23.455931 196.050354,22.813116 
	C194.172302,22.212915 193.260162,23.599855 192.304016,24.615015 
	C190.379883,26.657959 188.634079,28.868877 186.452240,31.561882 
M103.493416,90.006058 
	C104.818794,88.847488 107.072868,89.021370 107.821701,87.049683 
	C105.040871,81.252777 104.281410,81.066223 99.305038,84.920769 
	C98.782707,85.325363 98.220329,85.690697 97.753235,86.151932 
	C96.010559,87.872742 93.332497,89.840584 94.884003,92.305138 
	C96.785774,95.326080 99.199432,92.480759 101.292770,91.549843 
	C101.884583,91.286659 102.378601,90.803566 103.493416,90.006058 
z"/>
</svg>